<?xml version="1.0" encoding="UTF-8" standalone="no"?>
<!-- Created with Inkscape (http://www.inkscape.org/) -->

<svg
   width="368.86392mm"
   height="114.49158mm"
   viewBox="0 0 368.86392 114.49157"
   version="1.1"
   id="svg5"
   xmlns="http://www.w3.org/2000/svg"
   xmlns:svg="http://www.w3.org/2000/svg">
  <defs
     id="defs2" />
  <g
     id="layer1"
     transform="translate(-150.6289,-212.32062)">
    <path
       id="path874"
       style="fill:#e50914;stroke-width:0.999999"
       d="M 760.02344 0 L 760.02344 215.5 C 760.02344 345.23311 760.70278 377.71875 761.25391 377.71875 L 828.55664 378.40625 L 828.02344 304.21289 C 827.30385 236.48421 828.39577 187.00369 828.90234 187.55078 C 829.38616 188.0733 870.18253 288.53518 873.39648 296.18555 C 880.42247 312.90977 905.97975 380.65151 906.36719 381.10547 C 907.03382 381.88655 971.97356 384.04622 977.96094 387.46484 L 979.02344 201.86328 L 979.02344 0 L 945.52734 0 L 912.03125 0 L 911.77734 122.63477 L 911.52344 245.26758 L 888.8418 181.88477 C 876.36709 147.02358 856.61474 91.837502 844.94727 59.25 L 823.73242 0 L 791.87891 0 L 760.02344 0 z M 1034.1309 0 L 1034.1309 195.8418 L 1034.1309 391.68164 L 1054.3809 392.94336 C 1065.5184 393.63709 1079.9945 395.46484 1086.6309 395.46484 C 1093.2672 395.46484 1098.7433 396.78807 1098.8809 396.86328 C 1099.0181 396.93861 1099.1309 307.67502 1099.1309 198.5 L 1099.1309 0 L 1066.6309 0 L 1034.1309 0 z M 1357.8809 0.0078125 L 1321.6309 0.015625 L 1298.1914 56.507812 C 1285.2997 87.578024 1274.4998 112.99812 1274.1914 112.99805 C 1273.8831 112.99801 1263.7309 87.577608 1251.6309 56.507812 L 1229.6309 0.017578125 L 1193.7734 0.009765625 C 1160.0438 0.00095932579 1157.9547 0.10382677 1158.5586 1.75 C 1158.9117 2.7124945 1176.5205 48.327241 1197.6895 103.11523 L 1236.1797 202.72852 L 1193.0508 300.92773 C 1169.3304 354.93677 1150.1629 399.36409 1150.4551 399.65625 C 1150.7474 399.9486 1156.0813 400.80722 1162.3086 401.56445 C 1171.3849 402.66808 1211.3007 407.3592 1219.5117 408.28711 C 1221.0906 408.46554 1225.2773 399.47446 1245.6289 352.19336 C 1258.9591 321.22444 1270.2614 295.86838 1270.7461 295.8457 C 1271.2308 295.82408 1282.29 323.18873 1295.3223 356.6543 C 1308.3546 390.11986 1319.1609 417.8535 1319.3359 418.28516 C 1319.5946 418.92322 1357.7583 425.67093 1384.6309 429.83008 C 1392.2522 431.00963 1394.1309 431.13301 1394.1309 430.45508 C 1394.1309 430.15544 1375.0171 379.34682 1351.6562 317.54883 L 1309.1836 205.18945 L 1351.6562 103.39648 C 1375.0171 47.410229 1394.1309 1.2418899 1394.1309 0.80078125 C 1394.1309 0.359597 1377.8184 0.0040329724 1357.8809 0.0078125 z M 0 0.23828125 L 0 215.73828 C 0 345.4714 0.36488492 431.23828 0.91601562 431.23828 C 1.4194865 431.23828 10.982016 429.90803 22.166016 428.28125 C 33.350016 426.65443 46.549991 424.85057 51.5 424.27344 C 56.450009 423.69634 62.187512 422.9639 64.25 422.64453 L 68 422.0625 L 68 304.45117 C 68 236.71867 68.372336 187.24198 68.878906 187.78906 C 69.362724 188.31158 86.765496 238.68829 107.55078 299.73828 C 128.33607 360.78827 145.65951 411.11046 146.04688 411.56445 C 146.71351 412.34564 180.0688 409.05015 206.75 405.56641 L 219 403.9668 L 219 202.10352 L 219 0.23828125 L 185.50391 0.23828125 L 152.00781 0.23828125 L 151.75391 122.87305 L 151.5 245.50781 L 128.81836 182.12305 C 116.34365 147.26186 96.591305 92.075784 84.923828 59.488281 L 63.710938 0.23828125 L 31.855469 0.23828125 L 0 0.23828125 z M 285 0.23828125 L 285 199.31055 L 285 398.38281 L 290.25 397.80664 C 293.13752 397.48958 333.525 394.29404 380 390.70508 C 426.475 387.11611 465.96251 383.94753 467.75 383.66406 L 471 383.14844 L 471 351.08203 L 471 319.01562 L 457.75 319.69141 C 450.4625 320.06244 424.32338 321.68744 399.66211 323.30273 C 375.00088 324.91803 354.18839 326.23828 353.41211 326.23828 C 352.21581 326.23828 352 318.57364 352 275.89453 L 352 225.54883 L 365.6582 224.89453 C 373.17017 224.5343 393.42016 224.23828 410.6582 224.23828 L 442 224.23828 L 442 190.75195 L 442 157.26562 L 397 157.91602 L 352 158.56445 L 352 112.90234 L 352 67.238281 L 411.5 67.238281 L 471 67.238281 L 471 33.738281 L 471 0.23828125 L 378 0.23828125 L 285 0.23828125 z M 515 0.23828125 L 515 33.738281 L 515 67.238281 L 550 67.238281 L 585 67.238281 L 585 222.89844 L 585 378.55664 L 605.25 377.90039 C 616.38751 377.53948 631.4625 377.24317 638.75 377.24219 L 652 377.23828 L 652 222.23828 L 652 67.238281 L 687 67.238281 L 722 67.238281 L 722 33.738281 L 722 0.23828125 L 618.5 0.23828125 L 515 0.23828125 z "
       transform="matrix(0.26458333,0,0,0.26458333,150.6289,212.32062)" />
  </g>
</svg>
